HIERARCHY
ROOT Hips
{
  OFFSET 1.44925e-005 102.336 -0.101585
  CHANNELS 6 Xposition Yposition Zposition Zrotation Xrotation Yrotation
  JOINT LeftUpLeg
  {
    OFFSET 8.9458 -8.66707 0.101652
    CHANNELS 3 Zrotation Xrotation Yrotation
    JOINT LeftLeg
    {
      OFFSET 0 -44.4227 1.3727
      CHANNELS 3 Zrotation Xrotation Yrotation
      JOINT LeftFoot
      {
        OFFSET -0.253549 -42.0924 -1.46059
        CHANNELS 3 Zrotation Xrotation Yrotation
        JOINT LeftToes
        {
          OFFSET -0.04 -4.41509 8.4991
          CHANNELS 3 Zrotation Xrotation Yrotation
          End Site
          {
            OFFSET 0.08 -0.047448 9.77979
          }
        }
      }
    }
  }
  JOINT Spine
  {
    OFFSET 0 11.8905 0
    CHANNELS 3 Zrotation Xrotation Yrotation
    JOINT Spine1
    {
      OFFSET 0 25.6574 0.127663
      CHANNELS 3 Zrotation Xrotation Yrotation
      JOINT RightShoulder
      {
        OFFSET -8.99 -0.362252 -0.22
        CHANNELS 3 Zrotation Xrotation Yrotation
        JOINT RightArm
        {
          OFFSET -10.2827 -0.00338 0.322123
          CHANNELS 3 Zrotation Xrotation Yrotation
          JOINT RightForeArm
          {
            OFFSET -26.364 0.099144 -1.42434
            CHANNELS 3 Zrotation Xrotation Yrotation
            JOINT RightHand
            {
              OFFSET -22.0324 0.085362 1.02216
              CHANNELS 3 Zrotation Xrotation Yrotation
              End Site
              {
                OFFSET -13.3284 -0.6 1.50291
              }
            }
          }
        }
      }
      JOINT LeftShoulder1
      {
        OFFSET 8.99 -0.362252 -0.22
        CHANNELS 3 Zrotation Xrotation Yrotation
        JOINT LeftArm
        {
          OFFSET 10.2827 -0.00337999 0.322123
          CHANNELS 3 Zrotation Xrotation Yrotation
          JOINT LeftForeArm
          {
            OFFSET 26.2597 0.099144 -1.42434
            CHANNELS 3 Zrotation Xrotation Yrotation
            JOINT LeftHand
            {
              OFFSET 22.0902 0.085362 1.02216
              CHANNELS 3 Zrotation Xrotation Yrotation
              End Site
              {
                OFFSET 13.419 -0.6 1.50291
              }
            }
          }
        }
      }
      JOINT Head
      {
        OFFSET 0 8.73416 0.011341
        CHANNELS 3 Zrotation Xrotation Yrotation
        End Site
        {
          OFFSET -0.29 12.7742 2.51395
        }
      }
    }
  }
  JOINT RightUpLeg
  {
    OFFSET -8.9458 -8.66707 0.101652
    CHANNELS 3 Zrotation Xrotation Yrotation
    JOINT RightLeg
    {
      OFFSET 0 -44.4227 1.3727
      CHANNELS 3 Zrotation Xrotation Yrotation
      JOINT RightFoot
      {
        OFFSET 0.253549 -42.0924 -1.46059
        CHANNELS 3 Zrotation Xrotation Yrotation
        JOINT RightToes
        {
          OFFSET 0.04 -4.41509 8.4991
          CHANNELS 3 Zrotation Xrotation Yrotation
          End Site
          {
            OFFSET -0.08 -0.137448 9.77979
          }
        }
      }
    }
  }
}
MOTION
Frames:	7
Frame Time:	0.0333333
178.798 103.021 8.36677 -3.233 0.568657 -92.3797 -1.76745 2.67082 1.69877 0.143959 8.54788 19.0232 -1.35245 -12.7283 0.00896336 -1.3474e-009 8.75224e-006 -1.45922e-008 1.43304 5.25051 0.836222 -1.67297 -1.21619 1.25001 35.9441 1.72378 0.0515216 42.8927 -13.2178 6.70711 6.75629 40.7446 10.0748 -8.42395 9.58009 -0.633429 -42.5876 3.40308 -3.40418 -30.6404 -1.15937 2.88855 -2.23561 27.8197 -19.6185 5.82328 9.61819 -0.917488 -2.44813 -4.7622 -4.35017 0.106692 1.78884 -3.40007 0.044163 9.74554 -11.1674 2.69093 -12.5062 -0.0880202 0.0462048 0.000530889 0.662642 
178.815 103.021 8.38016 -3.24484 0.59396 -92.3381 -1.74495 2.64196 1.71298 0.147675 8.60638 18.9671 -1.33493 -12.7467 0.00896401 -1.3474e-009 8.75224e-006 -1.45922e-008 1.4955 5.29759 0.82259 -1.7354 -1.21922 1.24679 36.0193 1.72378 0.0515216 42.8786 -13.1148 6.69227 6.69635 40.3136 10.2349 -7.87248 9.61771 -0.888622 -42.5868 3.40303 -3.41767 -30.724 -0.492513 2.60106 -1.96988 27.1303 -20.1711 5.82328 9.61819 -0.917488 -2.3177 -4.73413 -4.44674 0.120198 1.81626 -3.39038 0.0613737 9.7023 -11.1949 2.70447 -12.4776 -0.0880104 0.0462048 0.000530889 0.662642 
178.835 103.021 8.40564 -3.28914 0.609946 -92.2826 -1.74986 2.65067 1.70549 0.166102 8.65387 18.9178 -1.29903 -12.7637 0.00896461 -1.3474e-009 8.75224e-006 -1.45922e-008 1.57508 5.40471 0.789176 -1.82858 -1.25769 1.23051 36.1314 1.72378 0.0532006 42.8703 -12.9642 6.67699 6.61684 39.7789 10.4428 -7.08405 9.66673 -1.23161 -42.5529 3.40007 -3.43143 -30.8985 0.416488 2.09306 -1.45177 26.2935 -21.1433 5.82328 9.61819 -0.917488 -2.10428 -4.65104 -4.5486 0.123658 1.87046 -3.38763 0.0619556 9.6734 -11.2309 2.72986 -12.458 -0.0874791 0.0462048 0.000530889 0.662642 
178.857 103.021 8.44159 -3.32808 0.598387 -92.2913 -1.79615 2.67617 1.67172 0.178325 8.6576 18.9633 -1.29011 -12.7575 0.00896439 -1.3474e-009 8.75224e-006 -1.45922e-008 1.66446 5.59404 0.751899 -1.95432 -1.43711 1.21684 36.239 1.72329 0.0606585 42.8448 -12.7848 6.65623 6.54791 39.5914 10.5799 -6.74915 9.68244 -1.30807 -42.4105 3.38453 -3.4185 -31.1457 1.19691 1.7138 -0.895118 25.6939 -22.2211 5.82328 9.61819 -0.917488 -1.96137 -4.58125 -4.54625 0.101409 1.8746 -3.38704 0.0257424 9.71901 -11.2276 2.77487 -12.47 -0.0856735 0.0462048 0.000530889 0.662642 
178.892 103.021 8.48835 -3.32523 0.590503 -92.3901 -1.83646 2.64341 1.65067 0.165439 8.67889 19.0896 -1.31773 -12.7512 0.00896417 -1.3474e-009 8.75224e-006 -1.45922e-008 1.7727 5.78013 0.752439 -2.06529 -1.62622 1.23823 36.2754 1.72097 0.0639957 42.8423 -12.6551 6.67086 6.4922 39.6589 10.6483 -6.92256 9.6719 -1.22194 -42.2738 3.36165 -3.39261 -31.3342 1.76513 1.42872 -0.505076 25.3743 -23.1228 5.82328 9.61819 -0.917488 -1.97812 -4.67191 -4.53175 0.0740671 1.79727 -3.37207 -0.0160889 9.80234 -11.1599 2.79807 -12.4859 -0.0844447 0.0462048 0.000530889 0.662642 
178.929 103.021 8.54003 -3.30765 0.612257 -92.4922 -1.84399 2.58134 1.65463 0.148553 8.72707 19.1888 -1.32009 -12.7649 0.00896466 -1.3474e-009 8.75224e-006 -1.45922e-008 1.86074 5.85183 0.788543 -2.07449 -1.61092 1.27824 36.2115 1.71895 0.0576952 42.8969 -12.6582 6.74878 6.49148 39.6421 10.6493 -7.22129 9.66365 -1.26633 -42.267 3.35606 -3.38224 -31.3719 2.0966 0.95061 -0.353549 25.3321 -23.521 5.82328 9.61819 -0.917488 -2.08351 -4.92251 -4.59667 0.0630132 1.72848 -3.35724 -0.0261354 9.83008 -11.073 2.76949 -12.4689 -0.0834053 0.0462048 0.000530889 0.662642 
178.942 103.021 8.5883 -3.32326 0.64403 -92.4984 -1.8433 2.59394 1.66141 0.148572 8.72242 19.1834 -1.24982 -12.776 0.00896505 -1.3474e-009 8.75224e-006 -1.45922e-008 1.89786 5.8398 0.790418 -2.01245 -1.4622 1.27201 36.1674 1.71829 0.0454523 42.9053 -12.7063 6.83091 6.60505 39.4453 10.5441 -7.39073 9.66579 -1.42889 -42.2971 3.35971 -3.38458 -31.368 2.22102 0.30848 -0.36775 25.4827 -23.3371 5.82328 9.61819 -0.917488 -2.11369 -5.12484 -4.63784 0.0576253 1.7671 -3.37384 -0.00861751 9.76478 -11.0395 2.74342 -12.4198 -0.0825152 0.0462048 0.000530889 0.662642 
